<svg width="100" height="100" viewBox="0 0 100 100" fill="none" xmlns="http://www.w3.org/2000/svg">
  <!-- Doorbell base -->
  <rect x="25" y="25" width="50" height="70" rx="5" fill="#333333" stroke="#222222" stroke-width="2" />
  
  <!-- Doorbell button -->
  <circle cx="50" cy="45" r="15" fill="#E53E3E" stroke="#9B2C2C" stroke-width="2" />
  
  <!-- Button shadow -->
  <circle cx="50" cy="45" r="12" fill="#C53030" />
  
  <!-- Doorbell speaker -->
  <rect x="35" y="65" width="30" height="20" rx="2" fill="#444444" stroke="#222222" stroke-width="1" />
  
  <!-- Speaker holes -->
  <circle cx="40" cy="70" r="1" fill="#222222" />
  <circle cx="45" cy="70" r="1" fill="#222222" />
  <circle cx="50" cy="70" r="1" fill="#222222" />
  <circle cx="55" cy="70" r="1" fill="#222222" />
  <circle cx="60" cy="70" r="1" fill="#222222" />
  
  <circle cx="40" cy="75" r="1" fill="#222222" />
  <circle cx="45" cy="75" r="1" fill="#222222" />
  <circle cx="50" cy="75" r="1" fill="#222222" />
  <circle cx="55" cy="75" r="1" fill="#222222" />
  <circle cx="60" cy="75" r="1" fill="#222222" />
  
  <circle cx="40" cy="80" r="1" fill="#222222" />
  <circle cx="45" cy="80" r="1" fill="#222222" />
  <circle cx="50" cy="80" r="1" fill="#222222" />
  <circle cx="55" cy="80" r="1" fill="#222222" />
  <circle cx="60" cy="80" r="1" fill="#222222" />
</svg>
